<svg xmlns:xlink="http://www.w3.org/1999/xlink" xmlns:ev="http://www.w3.org/2001/xml-events" xmlns="http://www.w3.org/2000/svg" width="1132" height="804" viewBox="0 0 1132 804"><style type="text/css"><![CDATA[
.st1 {fill:#1f6391;font-family:Arial;font-size:10pt;font-weight:bold}
.st2 {fill:#303030;font-family:Arial;font-size:10pt;font-weight:bold}
.st3 {fill:#ffffff;font-family:Arial;font-size:10pt;font-weight:bold}
.st4 {fill:#ffffff;font-family:Arial;font-size:10pt}
]]></style><defs><linearGradient x1="0%" y2="100%" x2="0%" y1="0%" id="lg1"><stop offset="0" stop-color="#2e89c6"/><stop offset="0.65" stop-color="#3498db"/><stop offset="1" stop-color="#2778ae"/></linearGradient><linearGradient x1="9" y2="0" x2="-0" y1="7" id="lg2" gradientUnits="userSpaceOnUse"><stop offset="0" stop-color="#afafaf"/><stop offset="0.68" stop-color="#e8eff8"/><stop offset="1" stop-color="#afafaf"/></linearGradient><linearGradient x1="3" y2="1" x2="-1" y1="4" id="lg3" gradientUnits="userSpaceOnUse"><stop offset="0.24" stop-color="#868686"/><stop offset="0.53" stop-color="#c2c2c2"/><stop offset="0.69" stop-color="#868686"/></linearGradient><linearGradient x1="3" y2="0" x2="-0" y1="4" id="lg4" gradientUnits="userSpaceOnUse"><stop offset="0.21" stop-color="#868686"/><stop offset="0.57" stop-color="#c2c2c2"/><stop offset="0.75" stop-color="#868686"/></linearGradient><linearGradient x1="6" y2="1" x2="-1" y1="7" id="lg5" gradientUnits="userSpaceOnUse"><stop offset="0.24" stop-color="#868686"/><stop offset="0.53" stop-color="#c2c2c2"/><stop offset="0.69" stop-color="#868686"/></linearGradient><linearGradient x1="5" y2="0" x2="-1" y1="7" id="lg6" gradientUnits="userSpaceOnUse"><stop offset="0.21" stop-color="#868686"/><stop offset="0.57" stop-color="#c2c2c2"/><stop offset="0.75" stop-color="#868686"/></linearGradient><linearGradient x1="9" y2="2" x2="-1" y1="10" id="lg7" gradientUnits="userSpaceOnUse"><stop offset="0.24" stop-color="#868686"/><stop offset="0.53" stop-color="#c2c2c2"/><stop offset="0.69" stop-color="#868686"/></linearGradient><linearGradient x1="13" y2="1" x2="-1" y1="12" id="lg8" gradientUnits="userSpaceOnUse"><stop offset="0.24" stop-color="#868686"/><stop offset="0.53" stop-color="#c2c2c2"/><stop offset="0.69" stop-color="#868686"/></linearGradient><linearGradient x1="8" y2="1" x2="-1" y1="11" id="lg9" gradientUnits="userSpaceOnUse"><stop offset="0.21" stop-color="#868686"/><stop offset="0.57" stop-color="#c2c2c2"/><stop offset="0.75" stop-color="#868686"/></linearGradient><linearGradient x1="12" y2="-1" x2="1" y1="13" id="lg10" gradientUnits="userSpaceOnUse"><stop offset="0.21" stop-color="#868686"/><stop offset="0.57" stop-color="#c2c2c2"/><stop offset="0.75" stop-color="#868686"/></linearGradient><linearGradient x1="0%" y2="100%" x2="0%" y1="0%" id="lg11"><stop offset="0" stop-color="#868686"/><stop offset="0.36" stop-color="#c2c2c2"/><stop offset="1" stop-color="#868686"/></linearGradient><linearGradient x1="0%" y2="100%" x2="0%" y1="0%" id="lg12"><stop offset="0" stop-color="#afafaf"/><stop offset="0.36" stop-color="#e8eff8"/><stop offset="1" stop-color="#afafaf"/></linearGradient><linearGradient x1="100%" y2="0%" x2="0%" y1="0%" id="lg13"><stop offset="0" stop-color="#afafaf"/><stop offset="0.68" stop-color="#e8eff8"/><stop offset="1" stop-color="#afafaf"/></linearGradient><linearGradient x1="0%" y2="100%" x2="0%" y1="0%" id="lg14"><stop offset="0" stop-color="#e2f2f9"/><stop offset="0.45" stop-color="#cbe8f5"/><stop offset="1" stop-color="#9cd2e9"/></linearGradient><linearGradient x1="0%" y2="100%" x2="0%" y1="0%" id="lg15"><stop stop-opacity="0.68" offset="0" stop-color="#ffffff"/><stop stop-opacity="0" offset="1" stop-color="#ffffff"/></linearGradient><linearGradient x1="0%" y2="100%" x2="0%" y1="0%" id="lg16"><stop stop-opacity="0" offset="0" stop-color="#ffffff"/><stop stop-opacity="0" offset="0.08" stop-color="#ffffff"/><stop stop-opacity="0.32" offset="1" stop-color="#ffffff"/></linearGradient></defs><g transform="translate(5,5)" id="page1"><rect x="0" fill="#ffffff" stroke="#808080" width="1123" height="794" y="0"/><path transform="translate(289.05,567)" fill="#3498db" stroke="#3498db" d="M7.9,23.8C7.8,25,6.8,26,5.5,26C4.2,26,3.2,25,3.1,23.8L3.1,20.4L0,20.4L0,12.1C0,10.3,1.4,8.9,3.2,8.9C3.8,8,4.9,2.5,4.9,2.3C5.3,1,6.5,0,8,0L30,0C31.5,0,32.7,1,33.1,2.3C33.1,2.5,34.2,8,34.4,8.9C36.6,8.9,38,10.3,38,12.1L38,20.4L34.9,20.4L34.9,23.8C34.8,25,33.8,26,32.5,26C31.2,26,30.2,25,30.1,23.8L30.1,20.4L7.9,20.4L7.9,23.8zM5.8,8.9L32.2,8.9C32.1,8.1,31.2,3.5,31.1,3.3C30.9,2.5,30.1,1.9,29.2,1.9L15.9,1.9L8.8,1.9C7.9,1.9,7.1,2.5,6.9,3.3C6.8,3.5,5.9,8.1,5.8,8.9zM32.5,16C33.8,16,34.9,15,34.9,13.7C34.9,12.4,33.8,11.3,32.5,11.3C31.2,11.3,30.1,12.4,30.1,13.7C30.1,15,31.2,16,32.5,16zM5.5,16C6.8,16,7.9,15,7.9,13.7C7.9,12.4,6.8,11.3,5.5,11.3C4.2,11.3,3.1,12.4,3.1,13.7C3.1,15,4.2,16,5.5,16z" stroke-width="0.333333" id="shape1"/><path transform="translate(402.05,567)" fill="#3498db" stroke="#3498db" d="M7.9,23.8C7.8,25,6.8,26,5.5,26C4.2,26,3.2,25,3.1,23.8L3.1,20.4L0,20.4L0,12.1C0,10.3,1.4,8.9,3.2,8.9C3.8,8,4.9,2.5,4.9,2.3C5.3,1,6.5,0,8,0L30,0C31.5,0,32.7,1,33.1,2.3C33.1,2.5,34.2,8,34.4,8.9C36.6,8.9,38,10.3,38,12.1L38,20.4L34.9,20.4L34.9,23.8C34.8,25,33.8,26,32.5,26C31.2,26,30.2,25,30.1,23.8L30.1,20.4L7.9,20.4L7.9,23.8zM5.8,8.9L32.2,8.9C32.1,8.1,31.2,3.5,31.1,3.3C30.9,2.5,30.1,1.9,29.2,1.9L15.9,1.9L8.8,1.9C7.9,1.9,7.1,2.5,6.9,3.3C6.8,3.5,5.9,8.1,5.8,8.9zM32.5,16C33.8,16,34.9,15,34.9,13.7C34.9,12.4,33.8,11.3,32.5,11.3C31.2,11.3,30.1,12.4,30.1,13.7C30.1,15,31.2,16,32.5,16zM5.5,16C6.8,16,7.9,15,7.9,13.7C7.9,12.4,6.8,11.3,5.5,11.3C4.2,11.3,3.1,12.4,3.1,13.7C3.1,15,4.2,16,5.5,16z" stroke-width="0.333333" id="shape2"/><path transform="translate(345.55,662)" fill="#3498db" stroke="#3498db" d="M7.9,23.8C7.8,25,6.8,26,5.5,26C4.2,26,3.2,25,3.1,23.8L3.1,20.4L0,20.4L0,12.1C0,10.3,1.4,8.9,3.2,8.9C3.8,8,4.9,2.5,4.9,2.3C5.3,1,6.5,0,8,0L30,0C31.5,0,32.7,1,33.1,2.3C33.1,2.5,34.2,8,34.4,8.9C36.6,8.9,38,10.3,38,12.1L38,20.4L34.9,20.4L34.9,23.8C34.8,25,33.8,26,32.5,26C31.2,26,30.2,25,30.1,23.8L30.1,20.4L7.9,20.4L7.9,23.8zM5.8,8.9L32.2,8.9C32.1,8.1,31.2,3.5,31.1,3.3C30.9,2.5,30.1,1.9,29.2,1.9L15.9,1.9L8.8,1.9C7.9,1.9,7.1,2.5,6.9,3.3C6.8,3.5,5.9,8.1,5.8,8.9zM32.5,16C33.8,16,34.9,15,34.9,13.7C34.9,12.4,33.8,11.3,32.5,11.3C31.2,11.3,30.1,12.4,30.1,13.7C30.1,15,31.2,16,32.5,16zM5.5,16C6.8,16,7.9,15,7.9,13.7C7.9,12.4,6.8,11.3,5.5,11.3C4.2,11.3,3.1,12.4,3.1,13.7C3.1,15,4.2,16,5.5,16z" stroke-width="0.333333" id="shape3"/><path transform="translate(308.05,593)" fill="none" stroke="#236ea1" stroke-dasharray="11,5" d="M0,0L56.5,69" id="shape4"/><path transform="translate(421.05,593)" fill="none" stroke="url(#lg1)" stroke-dasharray="11,5" d="M0,0L-56.5,69" id="shape5"/><path transform="translate(327.05,580)" fill="none" stroke="#236ea1" stroke-dasharray="11,5" d="M0,0L75,0" id="shape6"/><path transform="translate(530.55,567)" fill="#3498db" stroke="#3498db" d="M7.9,23.8C7.8,25,6.8,26,5.5,26C4.2,26,3.2,25,3.1,23.8L3.1,20.4L0,20.4L0,12.1C0,10.3,1.4,8.9,3.2,8.9C3.8,8,4.9,2.5,4.9,2.3C5.3,1,6.5,0,8,0L30,0C31.5,0,32.7,1,33.1,2.3C33.1,2.5,34.2,8,34.4,8.9C36.6,8.9,38,10.3,38,12.1L38,20.4L34.9,20.4L34.9,23.8C34.8,25,33.8,26,32.5,26C31.2,26,30.2,25,30.1,23.8L30.1,20.4L7.9,20.4L7.9,23.8zM5.8,8.9L32.2,8.9C32.1,8.1,31.2,3.5,31.1,3.3C30.9,2.5,30.1,1.9,29.2,1.9L15.9,1.9L8.8,1.9C7.9,1.9,7.1,2.5,6.9,3.3C6.8,3.5,5.9,8.1,5.8,8.9zM32.5,16C33.8,16,34.9,15,34.9,13.7C34.9,12.4,33.8,11.3,32.5,11.3C31.2,11.3,30.1,12.4,30.1,13.7C30.1,15,31.2,16,32.5,16zM5.5,16C6.8,16,7.9,15,7.9,13.7C7.9,12.4,6.8,11.3,5.5,11.3C4.2,11.3,3.1,12.4,3.1,13.7C3.1,15,4.2,16,5.5,16z" stroke-width="0.333333" id="shape7"/><path transform="translate(643.55,567)" fill="#3498db" stroke="#3498db" d="M7.9,23.8C7.8,25,6.8,26,5.5,26C4.2,26,3.2,25,3.1,23.8L3.1,20.4L0,20.4L0,12.1C0,10.3,1.4,8.9,3.2,8.9C3.8,8,4.9,2.5,4.9,2.3C5.3,1,6.5,0,8,0L30,0C31.5,0,32.7,1,33.1,2.3C33.1,2.5,34.2,8,34.4,8.9C36.6,8.9,38,10.3,38,12.1L38,20.4L34.9,20.4L34.9,23.8C34.8,25,33.8,26,32.5,26C31.2,26,30.2,25,30.1,23.8L30.1,20.4L7.9,20.4L7.9,23.8zM5.8,8.9L32.2,8.9C32.1,8.1,31.2,3.5,31.1,3.3C30.9,2.5,30.1,1.9,29.2,1.9L15.9,1.9L8.8,1.9C7.9,1.9,7.1,2.5,6.9,3.3C6.8,3.5,5.9,8.1,5.8,8.9zM32.5,16C33.8,16,34.9,15,34.9,13.7C34.9,12.4,33.8,11.3,32.5,11.3C31.2,11.3,30.1,12.4,30.1,13.7C30.1,15,31.2,16,32.5,16zM5.5,16C6.8,16,7.9,15,7.9,13.7C7.9,12.4,6.8,11.3,5.5,11.3C4.2,11.3,3.1,12.4,3.1,13.7C3.1,15,4.2,16,5.5,16z" stroke-width="0.333333" id="shape8"/><path transform="translate(587.05,662)" fill="#3498db" stroke="#3498db" d="M7.9,23.8C7.8,25,6.8,26,5.5,26C4.2,26,3.2,25,3.1,23.8L3.1,20.4L0,20.4L0,12.1C0,10.3,1.4,8.9,3.2,8.9C3.8,8,4.9,2.5,4.9,2.3C5.3,1,6.5,0,8,0L30,0C31.5,0,32.7,1,33.1,2.3C33.1,2.5,34.2,8,34.4,8.9C36.6,8.9,38,10.3,38,12.1L38,20.4L34.9,20.4L34.9,23.8C34.8,25,33.8,26,32.5,26C31.2,26,30.2,25,30.1,23.8L30.1,20.4L7.9,20.4L7.9,23.8zM5.8,8.9L32.2,8.9C32.1,8.1,31.2,3.5,31.1,3.3C30.9,2.5,30.1,1.9,29.2,1.9L15.9,1.9L8.8,1.9C7.9,1.9,7.1,2.5,6.9,3.3C6.8,3.5,5.9,8.1,5.8,8.9zM32.5,16C33.8,16,34.9,15,34.9,13.7C34.9,12.4,33.8,11.3,32.5,11.3C31.2,11.3,30.1,12.4,30.1,13.7C30.1,15,31.2,16,32.5,16zM5.5,16C6.8,16,7.9,15,7.9,13.7C7.9,12.4,6.8,11.3,5.5,11.3C4.2,11.3,3.1,12.4,3.1,13.7C3.1,15,4.2,16,5.5,16z" stroke-width="0.333333" id="shape9"/><path transform="translate(549.55,593)" fill="none" stroke="#236ea1" stroke-dasharray="11,5" d="M0,0L56.5,69" id="shape10"/><path transform="translate(662.55,593)" fill="none" stroke="url(#lg1)" stroke-dasharray="11,5" d="M0,0L-56.5,69" id="shape11"/><path transform="translate(568.55,580)" fill="none" stroke="#236ea1" stroke-dasharray="11,5" d="M0,0L75,0" id="shape12"/><path transform="translate(812.05,567)" fill="#3498db" stroke="#3498db" d="M7.9,23.8C7.8,25,6.8,26,5.5,26C4.2,26,3.2,25,3.1,23.8L3.1,20.4L0,20.4L0,12.1C0,10.3,1.4,8.9,3.2,8.9C3.8,8,4.9,2.5,4.9,2.3C5.3,1,6.5,0,8,0L30,0C31.5,0,32.7,1,33.1,2.3C33.1,2.5,34.2,8,34.4,8.9C36.6,8.9,38,10.3,38,12.1L38,20.4L34.9,20.4L34.9,23.8C34.8,25,33.8,26,32.5,26C31.2,26,30.2,25,30.1,23.8L30.1,20.4L7.9,20.4L7.9,23.8zM5.8,8.9L32.2,8.9C32.1,8.1,31.2,3.5,31.1,3.3C30.9,2.5,30.1,1.9,29.2,1.9L15.9,1.9L8.8,1.9C7.9,1.9,7.1,2.5,6.9,3.3C6.8,3.5,5.9,8.1,5.8,8.9zM32.5,16C33.8,16,34.9,15,34.9,13.7C34.9,12.4,33.8,11.3,32.5,11.3C31.2,11.3,30.1,12.4,30.1,13.7C30.1,15,31.2,16,32.5,16zM5.5,16C6.8,16,7.9,15,7.9,13.7C7.9,12.4,6.8,11.3,5.5,11.3C4.2,11.3,3.1,12.4,3.1,13.7C3.1,15,4.2,16,5.5,16z" stroke-width="0.333333" id="shape13"/><path transform="translate(925.05,567)" fill="#3498db" stroke="#3498db" d="M7.9,23.8C7.8,25,6.8,26,5.5,26C4.2,26,3.2,25,3.1,23.8L3.1,20.4L0,20.4L0,12.1C0,10.3,1.4,8.9,3.2,8.9C3.8,8,4.9,2.5,4.9,2.3C5.3,1,6.5,0,8,0L30,0C31.5,0,32.7,1,33.1,2.3C33.1,2.5,34.2,8,34.4,8.9C36.6,8.9,38,10.3,38,12.1L38,20.4L34.9,20.4L34.9,23.8C34.8,25,33.8,26,32.5,26C31.2,26,30.2,25,30.1,23.8L30.1,20.4L7.9,20.4L7.9,23.8zM5.8,8.9L32.2,8.9C32.1,8.1,31.2,3.5,31.1,3.3C30.9,2.5,30.1,1.9,29.2,1.9L15.9,1.9L8.8,1.9C7.9,1.9,7.1,2.5,6.9,3.3C6.8,3.5,5.9,8.1,5.8,8.9zM32.5,16C33.8,16,34.9,15,34.9,13.7C34.9,12.4,33.8,11.3,32.5,11.3C31.2,11.3,30.1,12.4,30.1,13.7C30.1,15,31.2,16,32.5,16zM5.5,16C6.8,16,7.9,15,7.9,13.7C7.9,12.4,6.8,11.3,5.5,11.3C4.2,11.3,3.1,12.4,3.1,13.7C3.1,15,4.2,16,5.5,16z" stroke-width="0.333333" id="shape14"/><path transform="translate(868.55,662)" fill="#3498db" stroke="#3498db" d="M7.9,23.8C7.8,25,6.8,26,5.5,26C4.2,26,3.2,25,3.1,23.8L3.1,20.4L0,20.4L0,12.1C0,10.3,1.4,8.9,3.2,8.9C3.8,8,4.9,2.5,4.9,2.3C5.3,1,6.5,0,8,0L30,0C31.5,0,32.7,1,33.1,2.3C33.1,2.5,34.2,8,34.4,8.9C36.6,8.9,38,10.3,38,12.1L38,20.4L34.9,20.4L34.9,23.8C34.8,25,33.8,26,32.5,26C31.2,26,30.2,25,30.1,23.8L30.1,20.4L7.9,20.4L7.9,23.8zM5.8,8.9L32.2,8.9C32.1,8.1,31.2,3.5,31.1,3.3C30.9,2.5,30.1,1.9,29.2,1.9L15.9,1.9L8.8,1.9C7.9,1.9,7.1,2.5,6.9,3.3C6.8,3.5,5.9,8.1,5.8,8.9zM32.5,16C33.8,16,34.9,15,34.9,13.7C34.9,12.4,33.8,11.3,32.5,11.3C31.2,11.3,30.1,12.4,30.1,13.7C30.1,15,31.2,16,32.5,16zM5.5,16C6.8,16,7.9,15,7.9,13.7C7.9,12.4,6.8,11.3,5.5,11.3C4.2,11.3,3.1,12.4,3.1,13.7C3.1,15,4.2,16,5.5,16z" stroke-width="0.333333" id="shape15"/><path transform="translate(831.05,593)" fill="none" stroke="#236ea1" stroke-dasharray="11,5" d="M0,0L56.5,69" id="shape16"/><path transform="translate(944.05,593)" fill="none" stroke="url(#lg1)" stroke-dasharray="11,5" d="M0,0L-56.5,69" id="shape17"/><path transform="translate(850.05,580)" fill="none" stroke="#236ea1" stroke-dasharray="11,5" d="M0,0L75,0" id="shape18"/><g transform="translate(339.55,392)"><path transform="translate(20.61,10.73)" fill="url(#lg2)" stroke-opacity="0" stroke="#000000" d="M0,3.6L4.1,0L8.5,3.6L5.7,7.5L0,3.6z" id="shape19"/><path transform="translate(22.17,30.9)" fill="url(#lg3)" stroke-opacity="0" stroke="#000000" d="M0,2.5L2.2,0L2.2,1.8L0,4.5L0,2.5z" id="shape20"/><path transform="matrix(-1,0,0,1,28.1,30.9)" fill="url(#lg4)" stroke-opacity="0" stroke="#000000" d="M0,2.5L2.2,0L2.2,1.8L0,4.5L0,2.5z" id="shape21"/><path transform="translate(19.61,38.82)" fill="url(#lg5)" stroke-opacity="0" stroke="#000000" d="M0,5.5L4.8,0L4.8,2.2L0,7.9L0,5.5z" id="shape22"/><path transform="matrix(-1,0,0,1,30.7,38.8)" fill="url(#lg6)" stroke-opacity="0" stroke="#000000" d="M0,5.5L4.8,0L4.8,2.2L0,7.9L0,5.5z" id="shape23"/><path transform="translate(17.04,47.77)" fill="url(#lg7)" stroke-opacity="0" stroke="#000000" d="M0,9.3L7.3,0L7.3,2.5L0,12.1L0,9.3z" id="shape24"/><path transform="translate(11.47,60.94)" fill="url(#lg8)" stroke-opacity="0" stroke="#000000" d="M.2,10.3L12.9,0L12.7,2.5L0,12.9L.2,10.3z" id="shape25"/><path transform="matrix(-1,0,0,1,33.3,48)" fill="url(#lg9)" stroke-opacity="0" stroke="#000000" d="M0,8.9L7.3,0L7.3,2.4L0,11.5L0,8.9z" id="shape26"/><path transform="matrix(-1,0,0,1,40.2,62.3)" fill="url(#lg10)" stroke-opacity="0" stroke="#000000" d="M.2,10.3L12.9,0L12.7,2.5L0,12.9L.2,10.3z" id="shape27"/><g transform="matrix(-1,0,0,1,50,19.8)"><path transform="translate(5.65,0)" fill="url(#lg11)" stroke-opacity="0" stroke="#000000" d="M17.9,.2L19.2,0C19.2,0,12.5,43.9,4.5,62.2L0,65.2L11.1,31.3L17.2,3.2L17.9,.2z" id="shape28"/><path transform="translate(-0,0.26)" fill="url(#lg12)" stroke-opacity="0" stroke="#000000" d="M22,0C19,18.2,11.5,46.9,1.1,62.5L0,63.2C0,63.2,2.2,65.2,5.4,64.9C5.4,64.9,6.6,64.9,7.7,62C8.7,59.1,22,22.7,23.7,.4L22,0z" id="shape29"/></g><g transform="translate(0,19.83)"><path transform="translate(5.65,0)" fill="url(#lg11)" stroke-opacity="0" stroke="#000000" d="M17.9,.2L19.2,0C19.2,0,12.5,43.9,4.5,62.2L0,65.2L11.1,31.3L17.2,3.2L17.9,.2z" id="shape30"/><path transform="translate(-0,0.26)" fill="url(#lg12)" stroke-opacity="0" stroke="#000000" d="M22,0C19,18.2,11.5,46.9,1.1,62.5L0,63.2C0,63.2,2.2,65.2,5.4,64.9C5.4,64.9,6.6,64.9,7.7,62C8.7,59.1,22,22.7,23.7,.4L22,0z" id="shape31"/></g><path transform="translate(21.91,34.13)" fill="url(#lg12)" stroke-opacity="0" stroke="#000000" d="M0,0L6.2,0L6.2,2.1L0,2.1L0,0z" id="shape32"/><path transform="translate(19.45,45.91)" fill="url(#lg12)" stroke-opacity="0" stroke="#000000" d="M0,0L11.3,0L11.3,2.1L0,2.1L0,0z" id="shape33"/><path transform="translate(16.25,58.83)" fill="url(#lg12)" stroke-opacity="0" stroke="#000000" d="M0,0L17.7,0L17.7,2.1L0,2.1L0,0z" id="shape34"/><path transform="translate(11.74,73.33)" fill="url(#lg12)" stroke-opacity="0" stroke="#000000" d="M0,0L26.4,0L26.4,2.1L0,2.1L0,0z" id="shape35"/><path transform="translate(21.68,19.83)" fill="url(#lg11)" stroke-opacity="0" stroke="#000000" d="M2.7,.4C2.7,12.6,1.3,43.1,0,48.9C1.1,49.9,7.3,49.9,7.1,48.8C6.2,45.3,4,.6,4,0L2.7,.4z" id="shape36"/><path transform="translate(20.61,14.3)" fill="url(#lg13)" stroke-opacity="0" stroke="#000000" d="M0,-0L0,5C0,5,1.1,6.7,4.3,6.7C7.5,6.7,8.5,5,8.5,5L8.5,-0L0,-0z" id="shape37"/><g transform="translate(31.51,-0.01)"><path transform="translate(2.56,0)" fill="#afafaf" stroke="#afafaf" d="M8.6,15.5C8.6,6.1,.8,2.3,0,2C0,2,.7,.1,.7,0C6.6,2.7,10.7,8.6,10.7,15.5C10.7,22.4,6.6,28.3,.7,31C.7,31,.1,29,.1,29C.9,28.5,8.6,24.9,8.6,15.5z" id="shape38"/><path transform="translate(0,9.09)" fill="#afafaf" stroke="#afafaf" d="M2.6,6.4C2.4,2.8,.2,1.4,-0,1.2C-0,1.2,.4,0,.4,0C2.7,1.3,3.8,3.6,3.8,6.4C3.8,8.9,2.4,11.4,.5,12.8C.5,12.8,-0,11.5,-0,11.5C.1,11.4,2.6,9.8,2.6,6.4z" id="shape39"/><path transform="translate(1.26,4.6)" fill="#afafaf" stroke="#afafaf" d="M5.5,10.9C5.4,4.4,.4,1.9,0,1.7C0,1.7,.4,0,.4,0C4.5,2,7.2,6.1,7.2,10.9C7.2,15.6,4.5,19.7,.6,21.8C.6,21.8,0,20.1,0,20.1C.6,19.8,5.5,17.3,5.5,10.9z" id="shape40"/></g><g transform="matrix(-1,0,0,1,18.4,-0)"><path transform="translate(2.56,0)" fill="#afafaf" stroke="#afafaf" d="M8.6,15.5C8.6,6.1,.8,2.3,0,2C0,2,.7,.1,.7,0C6.6,2.7,10.7,8.6,10.7,15.5C10.7,22.4,6.6,28.3,.7,31C.7,31,.1,29,.1,29C.9,28.5,8.6,24.9,8.6,15.5z" id="shape41"/><path transform="translate(0,9.09)" fill="#afafaf" stroke="#afafaf" d="M2.6,6.4C2.4,2.8,.2,1.4,-0,1.2C-0,1.2,.4,0,.4,0C2.7,1.3,3.8,3.6,3.8,6.4C3.8,8.9,2.4,11.4,.5,12.8C.5,12.8,-0,11.5,-0,11.5C.1,11.4,2.6,9.8,2.6,6.4z" id="shape42"/><path transform="translate(1.26,4.6)" fill="#afafaf" stroke="#afafaf" d="M5.5,10.9C5.4,4.4,.4,1.9,0,1.7C0,1.7,.4,0,.4,0C4.5,2,7.2,6.1,7.2,10.9C7.2,15.6,4.5,19.7,.6,21.8C.6,21.8,0,20.1,0,20.1C.6,19.8,5.5,17.3,5.5,10.9z" id="shape43"/></g><text class="st1"><tspan x="11.3" y="100.5">RSU</tspan></text></g><g transform="translate(581.05,392)"><path transform="translate(20.61,10.73)" fill="url(#lg2)" stroke-opacity="0" stroke="#000000" d="M0,3.6L4.1,0L8.5,3.6L5.7,7.5L0,3.6z" id="shape44"/><path transform="translate(22.17,30.9)" fill="url(#lg3)" stroke-opacity="0" stroke="#000000" d="M0,2.5L2.2,0L2.2,1.8L0,4.5L0,2.5z" id="shape45"/><path transform="matrix(-1,0,0,1,28.1,30.9)" fill="url(#lg4)" stroke-opacity="0" stroke="#000000" d="M0,2.5L2.2,0L2.2,1.8L0,4.5L0,2.5z" id="shape46"/><path transform="translate(19.61,38.82)" fill="url(#lg5)" stroke-opacity="0" stroke="#000000" d="M0,5.5L4.8,0L4.8,2.2L0,7.9L0,5.5z" id="shape47"/><path transform="matrix(-1,0,0,1,30.7,38.8)" fill="url(#lg6)" stroke-opacity="0" stroke="#000000" d="M0,5.5L4.8,0L4.8,2.2L0,7.9L0,5.5z" id="shape48"/><path transform="translate(17.04,47.77)" fill="url(#lg7)" stroke-opacity="0" stroke="#000000" d="M0,9.3L7.3,0L7.3,2.5L0,12.1L0,9.3z" id="shape49"/><path transform="translate(11.47,60.94)" fill="url(#lg8)" stroke-opacity="0" stroke="#000000" d="M.2,10.3L12.9,0L12.7,2.5L0,12.9L.2,10.3z" id="shape50"/><path transform="matrix(-1,0,0,1,33.3,48)" fill="url(#lg9)" stroke-opacity="0" stroke="#000000" d="M0,8.9L7.3,0L7.3,2.4L0,11.5L0,8.9z" id="shape51"/><path transform="matrix(-1,0,0,1,40.2,62.3)" fill="url(#lg10)" stroke-opacity="0" stroke="#000000" d="M.2,10.3L12.9,0L12.7,2.5L0,12.9L.2,10.3z" id="shape52"/><g transform="matrix(-1,0,0,1,50,19.8)"><path transform="translate(5.65,0)" fill="url(#lg11)" stroke-opacity="0" stroke="#000000" d="M17.9,.2L19.2,0C19.2,0,12.5,43.9,4.5,62.2L0,65.2L11.1,31.3L17.2,3.2L17.9,.2z" id="shape53"/><path transform="translate(-0,0.26)" fill="url(#lg12)" stroke-opacity="0" stroke="#000000" d="M22,0C19,18.2,11.5,46.9,1.1,62.5L0,63.2C0,63.2,2.2,65.2,5.4,64.9C5.4,64.9,6.6,64.9,7.7,62C8.7,59.1,22,22.7,23.7,.4L22,0z" id="shape54"/></g><g transform="translate(0,19.83)"><path transform="translate(5.65,0)" fill="url(#lg11)" stroke-opacity="0" stroke="#000000" d="M17.9,.2L19.2,0C19.2,0,12.5,43.9,4.5,62.2L0,65.2L11.1,31.3L17.2,3.2L17.9,.2z" id="shape55"/><path transform="translate(-0,0.26)" fill="url(#lg12)" stroke-opacity="0" stroke="#000000" d="M22,0C19,18.2,11.5,46.9,1.1,62.5L0,63.2C0,63.2,2.2,65.2,5.4,64.9C5.4,64.9,6.6,64.9,7.7,62C8.7,59.1,22,22.7,23.7,.4L22,0z" id="shape56"/></g><path transform="translate(21.91,34.13)" fill="url(#lg12)" stroke-opacity="0" stroke="#000000" d="M0,0L6.2,0L6.2,2.1L0,2.1L0,0z" id="shape57"/><path transform="translate(19.45,45.91)" fill="url(#lg12)" stroke-opacity="0" stroke="#000000" d="M0,0L11.3,0L11.3,2.1L0,2.1L0,0z" id="shape58"/><path transform="translate(16.25,58.83)" fill="url(#lg12)" stroke-opacity="0" stroke="#000000" d="M0,0L17.7,0L17.7,2.1L0,2.1L0,0z" id="shape59"/><path transform="translate(11.74,73.33)" fill="url(#lg12)" stroke-opacity="0" stroke="#000000" d="M0,0L26.4,0L26.4,2.1L0,2.1L0,0z" id="shape60"/><path transform="translate(21.68,19.83)" fill="url(#lg11)" stroke-opacity="0" stroke="#000000" d="M2.7,.4C2.7,12.6,1.3,43.1,0,48.9C1.1,49.9,7.3,49.9,7.1,48.8C6.2,45.3,4,.6,4,0L2.7,.4z" id="shape61"/><path transform="translate(20.61,14.3)" fill="url(#lg13)" stroke-opacity="0" stroke="#000000" d="M0,-0L0,5C0,5,1.1,6.7,4.3,6.7C7.5,6.7,8.5,5,8.5,5L8.5,-0L0,-0z" id="shape62"/><g transform="translate(31.51,-0.01)"><path transform="translate(2.56,0)" fill="#afafaf" stroke="#afafaf" d="M8.6,15.5C8.6,6.1,.8,2.3,0,2C0,2,.7,.1,.7,0C6.6,2.7,10.7,8.6,10.7,15.5C10.7,22.4,6.6,28.3,.7,31C.7,31,.1,29,.1,29C.9,28.5,8.6,24.9,8.6,15.5z" id="shape63"/><path transform="translate(0,9.09)" fill="#afafaf" stroke="#afafaf" d="M2.6,6.4C2.4,2.8,.2,1.4,-0,1.2C-0,1.2,.4,0,.4,0C2.7,1.3,3.8,3.6,3.8,6.4C3.8,8.9,2.4,11.4,.5,12.8C.5,12.8,-0,11.5,-0,11.5C.1,11.4,2.6,9.8,2.6,6.4z" id="shape64"/><path transform="translate(1.26,4.6)" fill="#afafaf" stroke="#afafaf" d="M5.5,10.9C5.4,4.4,.4,1.9,0,1.7C0,1.7,.4,0,.4,0C4.5,2,7.2,6.1,7.2,10.9C7.2,15.6,4.5,19.7,.6,21.8C.6,21.8,0,20.1,0,20.1C.6,19.8,5.5,17.3,5.5,10.9z" id="shape65"/></g><g transform="matrix(-1,0,0,1,18.4,-0)"><path transform="translate(2.56,0)" fill="#afafaf" stroke="#afafaf" d="M8.6,15.5C8.6,6.1,.8,2.3,0,2C0,2,.7,.1,.7,0C6.6,2.7,10.7,8.6,10.7,15.5C10.7,22.4,6.6,28.3,.7,31C.7,31,.1,29,.1,29C.9,28.5,8.6,24.9,8.6,15.5z" id="shape66"/><path transform="translate(0,9.09)" fill="#afafaf" stroke="#afafaf" d="M2.6,6.4C2.4,2.8,.2,1.4,-0,1.2C-0,1.2,.4,0,.4,0C2.7,1.3,3.8,3.6,3.8,6.4C3.8,8.9,2.4,11.4,.5,12.8C.5,12.8,-0,11.5,-0,11.5C.1,11.4,2.6,9.8,2.6,6.4z" id="shape67"/><path transform="translate(1.26,4.6)" fill="#afafaf" stroke="#afafaf" d="M5.5,10.9C5.4,4.4,.4,1.9,0,1.7C0,1.7,.4,0,.4,0C4.5,2,7.2,6.1,7.2,10.9C7.2,15.6,4.5,19.7,.6,21.8C.6,21.8,0,20.1,0,20.1C.6,19.8,5.5,17.3,5.5,10.9z" id="shape68"/></g><text class="st1"><tspan x="11.3" y="100.5">RSU</tspan></text></g><g transform="translate(523.55,104.93)"><path transform="translate(-0.04,0)" fill="url(#lg14)" d="M25.7,27.1C25.7,27.1,23.7,4.8,47,.1C47,.1,66.4,-2.6,72.4,14.7C72.4,14.7,95.8,6.3,94.8,29.5C94.8,29.5,122.9,30.2,117.8,61.3C117.8,61.3,109,86.9,81.9,73.6C81.9,73.6,61.4,96.9,41.2,72.1C41.2,72.1,20.7,87.2,4.5,66.9C4.5,66.9,-8.2,47.8,8.9,33.1C8.9,33.1,16.7,27.1,25.7,27.1z" id="shape69"/><path transform="translate(4.4,2.12)" fill="url(#lg15)" d="M24.9,26.3C24.9,26.3,23,4.7,45.5,.1C45.5,.1,64.3,-2.5,70.1,14.2C70.1,14.2,92.7,6.1,91.7,28.6C91.7,28.6,118.9,29.2,114,59.4C114,59.4,105.5,84.1,79.3,71.2C79.3,71.2,59.4,93.9,39.9,69.8C39.9,69.8,20,84.5,4.3,64.8C4.3,64.8,-7.9,46.3,8.7,32C8.7,32,16.2,26.3,24.9,26.3z" id="shape70"/><path transform="translate(4.4,2.12)" fill="url(#lg16)" d="M24.9,26.3C24.9,26.3,23,4.7,45.5,.1C45.5,.1,64.3,-2.5,70.1,14.2C70.1,14.2,92.7,6.1,91.7,28.6C91.7,28.6,4.3,64.8,4.3,64.8C4.3,64.8,-7.9,46.3,8.7,32C8.7,32,16.2,26.3,24.9,26.3z" id="shape71"/><text class="st2"><tspan x="35.2" y="99">Internet</tspan></text></g><g transform="translate(198.05,243.23)" id="shape72"><path fill="#e8eff8" stroke="#83b3e3" d="M27.1,55.9C27.1,55.9,-1.4,51.9,0,44.7C2.3,32.6,55.6,31.5,55.6,31.5C55.6,31.5,39.5,21.3,86.5,13C137,4.1,184.3,12.8,184.3,12.8C184.3,12.8,192.6,5.7,231.4,3.9C272.3,2,292.1,7.9,292.1,7.9C292.1,7.9,302,1.8,334.2,.2C366.4,-1.4,387.4,5.8,387.4,5.8C387.4,5.8,409.3,-0.6,445.6,1C490.2,2.8,498.8,12.8,498.8,12.8C498.8,12.8,532.6,14,545.9,23.2C558.3,31.8,540.3,34.9,540.3,34.9C540.3,34.9,575.6,42.3,558.3,52.7C540.3,63.6,493.9,65.9,493.9,65.9C493.9,65.9,492.7,73.4,450.6,80.3C408.5,87.3,377.5,79.8,377.5,79.8C377.5,79.8,349,93.5,294.5,94C235.1,94.5,209.1,85.2,209.1,85.2C209.1,85.2,180.6,90.8,134.8,88.1C91.7,85.6,80.3,77.6,80.3,77.6C80.3,77.6,32,77.1,18.4,69.1C4.9,60.8,28.3,56.5,27.1,55.9z"/><text class="st1"><tspan x="235" y="50.5">Public Network</tspan></text></g><g transform="translate(856.2,243.23)"><g transform="translate(0,4.77)"><path transform="translate(31.05,34.5)" fill="#9eb3c6" d="M11.6,64.1L8.7,65.6C8.7,65.6,.2,37.6,0,0L2.1,.2C2.1,.2,.5,31.7,11.6,64.1z" id="shape73"/><path transform="translate(32.86,33.92)" fill="#d9dfe8" d="M9.3,64.7L11.4,67.4C11.4,67.4,.1,33.8,1.1,0L.1,.5C.1,.5,-1.5,29.2,9.3,64.7z" id="shape74"/><path transform="translate(1.95,32.95)" fill="#d9dfe8" d="M23.4,0L24.9,.8C24.9,.8,25.2,44.7,1.3,72.3L0,72.3C0,72.3,23,44.2,23.4,0z" id="shape75"/><path transform="translate(22.32,103.77)" fill="#c5ccd8" d="M.7,3.9L31,0L32.9,2.7L0,6.6L.7,3.9z" id="shape76"/><path transform="translate(5.23,98.39)" fill="#c5ccd8" d="M13.1,8.6L1.2,0L0,2.5L12.3,11.4L13.1,8.6z" id="shape77"/><path transform="translate(24.97,93.01)" fill="#c5ccd8" d="M.6,2.4L22.7,0L24,2.6L0,5.2L.6,2.4z" id="shape78"/><path transform="translate(10.69,88.97)" fill="#c5ccd8" d="M10,5.9L1.3,0L0,2.5L9.3,8.6L10,5.9z" id="shape79"/><path transform="translate(26.68,81.49)" fill="#c5ccd8" d="M0,5.3L17.5,2.9L16.5,0L.7,2.1L0,5.3z" id="shape80"/><path transform="translate(15.19,78.78)" fill="#c5ccd8" d="M8,3.9L1.2,0L0,3.1L7.3,7.2L8,3.9z" id="shape81"/><path transform="translate(28.72,70.11)" fill="#c5ccd8" d="M.3,.7L11.1,0L11.7,2.5L0,3.5L.3,.7z" id="shape82"/><path transform="translate(19.2,68.13)" fill="#c5ccd8" d="M1,0L5.5,2.6L5.3,5.6L0,2.6L1,0z" id="shape83"/><path transform="translate(22.35,56.96)" fill="#c5ccd8" d="M0,2.7L3.1,4.7L3.4,1.4L.5,0L0,2.7z" id="shape84"/><path transform="translate(29.77,58.83)" fill="#c5ccd8" d="M.3,.4L0,3.1L7.9,2.6L7.4,0L.3,.4z" id="shape85"/><path transform="translate(-0,32.34)" fill="#9eb3c6" d="M23.8,0C23.8,0,24,44.1,0,71.9L.9,74.4C.9,74.4,25.4,45.9,25.4,.6L23.8,0z" id="shape86"/><path transform="translate(15.16,33.25)" fill="#9eb3c6" d="M12.7,.3C12.7,.3,12.3,51.3,1.9,84.4L0,84.9C0,84.9,12.1,43.2,11.4,0L12.7,.3z" id="shape87"/><path transform="translate(17.1,33.86)" fill="#d9dfe8" d="M10.8,0C10.8,0,10,51.5,0,83.8L3.1,85.3C3.1,85.3,13.8,48,14.3,0C14.3,0,11.8,.5,10.8,0z" id="shape88"/><path transform="translate(33.61,32.5)" fill="#d9dfe8" d="M0,1.2C0,1.2,2.4,50.9,26.2,81.1L29.1,78.8C29.1,78.8,6,51.5,3.3,0L0,1.2z" id="shape89"/><g transform="translate(18.67,31.38)"><path transform="translate(0,-0)" fill="#e4e8ef" d="M0,.9L15.1,0L23.4,3L8.3,3.9L0,.9z" id="shape90"/><path transform="translate(8.28,2.98)" fill="#c8d0dd" d="M0,.9L15.1,0L15.1,1.8L0,2.7L0,.9z" id="shape91"/><path transform="translate(0,0.94)" fill="#9eb3c6" d="M8.3,3L0,0L0,1.8L8.3,4.8L8.3,3z" id="shape92"/></g><path transform="translate(23.88,30.26)" fill="#878f99" d="M0,0L0,2.7L3.2,3.7L13,3.1L13,.2L0,0z" id="shape93"/><g transform="translate(18.67,26.39)"><path transform="translate(0,-0)" fill="#e4e8ef" d="M0,.9L15.1,0L23.4,3L8.3,3.9L0,.9z" id="shape94"/><path transform="translate(8.28,2.98)" fill="#c8d0dd" d="M0,.9L15.1,0L15.1,1.8L0,2.7L0,.9z" id="shape95"/><path transform="translate(0,0.94)" fill="#9eb3c6" d="M8.3,3L0,0L0,1.8L8.3,4.8L8.3,3z" id="shape96"/></g><g transform="translate(24.55,19.18)"><path transform="translate(0,-0)" fill="#e4e8ef" d="M0,.4L6.7,0L10.9,1.4L4.1,1.8L0,.4z" id="shape97"/><path transform="translate(4.14,1.44)" fill="#c8d0dd" d="M0,.4L6.7,0L6.7,8.5L0,8.9L0,.4z" id="shape98"/><path transform="translate(0,0.37)" fill="#9eb3c6" d="M4.1,1.4L0,0L0,8.5L4.1,10L4.1,1.4z" id="shape99"/></g><g transform="translate(27.22,11.25)"><path transform="translate(0,-0)" fill="#e4e8ef" d="M0,.3L3.1,0L5.1,.7L2,.9L0,.3z" id="shape100"/><path transform="translate(2,0.65)" fill="#c8d0dd" d="M0,.3L3.1,0L3.1,8.5L0,8.8L0,.3z" id="shape101"/><path transform="translate(0,0.26)" fill="#9eb3c6" d="M2,.7L0,0L0,8.5L2,9.2L2,.7z" id="shape102"/></g><path transform="translate(29.54,0)" fill="#c8d0dd" d="M0,12L0,0L1.1,11.8L0,12z" id="shape103"/><path transform="translate(28.61,0)" fill="#9eb3c6" d="M.9,0L.9,12L.9,0z" id="shape104"/><path transform="translate(23.04,95.62)" fill="#c5ccd8" d="M0,12C.6,11.7,26.6,1.6,26.6,1.6L25.9,0L.6,9.8L0,12z" id="shape105"/><path transform="translate(24.61,98.1)" fill="#c5ccd8" d="M.4,0L0,1.5L28.7,5.7L27.7,4L.4,0z" id="shape106"/><path transform="translate(25.58,84.44)" fill="#c5ccd8" d="M0,11L19.2,1.5C19.2,1.5,18.8,0,18.6,0C18.5,0,.1,9.4,.1,9.4L0,11z" id="shape107"/><path transform="translate(26.76,86.74)" fill="#c5ccd8" d="M.1,0L0,1.3L21,6.3L20.4,5.1L.1,0z" id="shape108"/><path transform="translate(27.36,72.6)" fill="#c5ccd8" d="M0,11L13.4,1.5L13.1,0L.2,9.1L0,11z" id="shape109"/><path transform="translate(28.63,73.64)" fill="#c5ccd8" d="M.1,0L0,1.6L14.6,7.9C14.6,7.9,13.8,5.9,14,5.9C14.1,5.9,.1,0,.1,0z" id="shape110"/><path transform="translate(29.02,61.4)" fill="#c5ccd8" d="M0,9.5L8.8,1.4L8.6,0L.3,7.3L0,9.5z" id="shape111"/><path transform="translate(29.81,61.92)" fill="#c5ccd8" d="M.3,0L0,1.6L9.8,8.2L9.4,6.3L.3,0z" id="shape112"/><path transform="translate(9.99,91.59)" fill="#c5ccd8" d="M.9,0L0,1.5L7.9,15.1L8.5,13.3L.9,0z" id="shape113"/><path transform="translate(6.72,97.27)" fill="#c5ccd8" d="M0,1.2L13,1.5L13.3,.3L.8,0L0,1.2z" id="shape114"/><path transform="translate(12.04,85.76)" fill="#c5ccd8" d="M0,3.2L.8,1.6L10.1,0L10,1.6L0,3.2z" id="shape115"/><path transform="translate(14.81,81.83)" fill="#c5ccd8" d="M5.8,12.8L0,1.5L.4,0L6.2,10.7L5.8,12.8z" id="shape116"/><path transform="translate(16.42,73.58)" fill="#c5ccd8" d="M0,5.2L.8,3.5L7.6,0L7.4,1.7L0,5.2z" id="shape117"/><path transform="translate(18.82,70.97)" fill="#c5ccd8" d="M3.9,11.5L0,1.7L.5,0L4.3,9L3.9,11.5z" id="shape118"/><path transform="translate(21.94,59.68)" fill="#c5ccd8" d="M.4,0L2.7,8.5L2.3,10.9L0,2.2L.4,0z" id="shape119"/><path transform="translate(20.17,61.48)" fill="#c5ccd8" d="M0,6.7L.7,4.6L5.2,0L5,2.2L0,6.7z" id="shape120"/></g><g transform="translate(12.03,-0.03)"><path fill="#d3ddd5" d="M4.5,0C4.5,0,.1,3.9,0,9.8C-0.1,15.6,4.9,19.8,4.9,19.8C4.9,19.8,1.5,16.8,1.5,9.8C1.5,2.7,4.5,0,4.5,0z" id="shape121"/><path transform="translate(6.01,2.39)" fill="#d3ddd5" d="M3.4,0C3.4,0,.1,3,0,7.4C-0.1,11.8,3.7,15,3.7,15C3.7,15,1.1,12.7,1.1,7.4C1.1,2.1,3.4,0,3.4,0z" id="shape122"/><path transform="translate(10.69,5.08)" fill="#d3ddd5" d="M2.2,0C2.2,0,.1,1.9,0,4.8C-0.1,7.6,2.4,9.6,2.4,9.6C2.4,9.6,.7,8.2,.7,4.8C.7,1.3,2.2,0,2.2,0z" id="shape123"/><path transform="matrix(-1,0,0,1,28.2,2.4)" fill="#d3ddd5" d="M3.4,0C3.4,0,.1,3,0,7.4C-0.1,11.8,3.7,15,3.7,15C3.7,15,1.1,12.7,1.1,7.4C1.1,2.1,3.4,0,3.4,0z" id="shape124"/><path transform="matrix(-1,0,0,1,23.1,5.1)" fill="#d3ddd5" d="M2.2,0C2.2,0,.1,1.9,0,4.8C-0.1,7.6,2.4,9.6,2.4,9.6C2.4,9.6,.7,8.2,.7,4.8C.7,1.3,2.2,0,2.2,0z" id="shape125"/><path transform="matrix(-1,0,0,1,33.5,0)" fill="#d3ddd5" d="M4.5,0C4.5,0,.1,3.9,0,9.8C-0.1,15.6,4.9,19.8,4.9,19.8C4.9,19.8,1.5,16.8,1.5,9.8C1.5,2.7,4.5,0,4.5,0z" id="shape126"/></g></g><g transform="translate(831.05,567)" id="shape127"><path fill="none" stroke="#236ea1" d="M0,0L55.3,-195.6"/><path stroke-linecap="round" fill="#236ea1" stroke="#236ea1" d="M56.5,-199.8L52.2,-195.6C53.2,-195.9,54.3,-195.9,55.3,-195.6C56.4,-195.3,57.3,-194.7,58,-194L56.5,-199.8" stroke-width="1"/></g><g transform="translate(887.55,367.19)" id="shape128"><path fill="none" stroke="#236ea1" d="M0,0L55.3,195.6"/><path stroke-linecap="round" fill="#236ea1" stroke="#236ea1" d="M56.5,199.8L58,194C57.3,194.7,56.4,195.3,55.3,195.6C54.3,195.9,53.2,195.9,52.2,195.6L56.5,199.8" stroke-width="1"/></g><g transform="translate(887.55,662)" id="shape129"><path fill="none" stroke="#236ea1" d="M0,0L0,-290.4"/><path stroke-linecap="round" fill="#236ea1" stroke="#236ea1" d="M0,-294.8L-3,-289.6C-2.1,-290.1,-1.1,-290.4,0,-290.4C1.1,-290.4,2.1,-290.1,3,-289.6L0,-294.8" stroke-width="1"/></g><g transform="translate(308.05,567)" id="shape130"><path fill="none" stroke="#236ea1" d="M0,0L54.2,-86.3"/><path stroke-linecap="round" fill="#236ea1" stroke="#236ea1" d="M56.5,-90L51.2,-87.2C52.2,-87.2,53.2,-86.9,54.2,-86.3C55.1,-85.7,55.8,-84.9,56.3,-84L56.5,-90" stroke-width="1"/></g><g transform="translate(421.05,567)" id="shape131"><path fill="none" stroke="#236ea1" d="M0,0L-54.2,-86.3"/><path stroke-linecap="round" fill="#236ea1" stroke="#236ea1" d="M-56.5,-90L-56.3,-84C-55.8,-84.9,-55.1,-85.7,-54.2,-86.3C-53.2,-86.9,-52.2,-87.2,-51.2,-87.2L-56.5,-90" stroke-width="1"/></g><g transform="translate(364.55,662)" id="shape132"><path fill="none" stroke="#236ea1" d="M0,0L0,-180.6"/><path stroke-linecap="round" fill="#236ea1" stroke="#236ea1" d="M0,-185L-3,-179.8C-2.1,-180.3,-1.1,-180.6,0,-180.6C1.1,-180.6,2.1,-180.3,3,-179.8L0,-185" stroke-width="1"/></g><g transform="translate(549.55,567)" id="shape133"><path fill="none" stroke="#236ea1" d="M0,0L54.2,-86.3"/><path stroke-linecap="round" fill="#236ea1" stroke="#236ea1" d="M56.5,-90L51.2,-87.2C52.2,-87.2,53.2,-86.9,54.2,-86.3C55.1,-85.7,55.8,-84.9,56.3,-84L56.5,-90" stroke-width="1"/></g><g transform="translate(662.55,567)" id="shape134"><path fill="none" stroke="#236ea1" d="M0,0L-54.2,-86.3"/><path stroke-linecap="round" fill="#236ea1" stroke="#236ea1" d="M-56.5,-90L-56.3,-84C-55.8,-84.9,-55.1,-85.7,-54.2,-86.3C-53.2,-86.9,-52.2,-87.2,-51.2,-87.2L-56.5,-90" stroke-width="1"/></g><g transform="translate(479.55,243.23)" id="shape135"><path fill="none" stroke="#236ea1" d="M0,0L99.6,-52.7"/><path stroke-linecap="round" fill="#236ea1" stroke="#236ea1" d="M103.5,-54.8L97.5,-55C98.4,-54.5,99.1,-53.7,99.6,-52.7C100.1,-51.8,100.4,-50.7,100.3,-49.7L103.5,-54.8" stroke-width="1"/></g><g transform="translate(856.2,305.21)" id="shape136"><path fill="none" stroke="#236ea1" d="M0,0L-269.1,-115"/><path stroke-linecap="round" fill="#236ea1" stroke="#236ea1" d="M-273.1,-116.8L-269.5,-112C-269.7,-113,-269.5,-114,-269.1,-115C-268.7,-116.1,-268,-116.9,-267.2,-117.5L-273.1,-116.8" stroke-width="1"/></g><path transform="translate(587.05,739.3)" fill="#3498db" stroke="#3498db" d="M7.9,23.8C7.8,25,6.8,26,5.5,26C4.2,26,3.2,25,3.1,23.8L3.1,20.4L0,20.4L0,12.1C0,10.3,1.4,8.9,3.2,8.9C3.8,8,4.9,2.5,4.9,2.3C5.3,1,6.5,0,8,0L30,0C31.5,0,32.7,1,33.1,2.3C33.1,2.5,34.2,8,34.4,8.9C36.6,8.9,38,10.3,38,12.1L38,20.4L34.9,20.4L34.9,23.8C34.8,25,33.8,26,32.5,26C31.2,26,30.2,25,30.1,23.8L30.1,20.4L7.9,20.4L7.9,23.8zM5.8,8.9L32.2,8.9C32.1,8.1,31.2,3.5,31.1,3.3C30.9,2.5,30.1,1.9,29.2,1.9L15.9,1.9L8.8,1.9C7.9,1.9,7.1,2.5,6.9,3.3C6.8,3.5,5.9,8.1,5.8,8.9zM32.5,16C33.8,16,34.9,15,34.9,13.7C34.9,12.4,33.8,11.3,32.5,11.3C31.2,11.3,30.1,12.4,30.1,13.7C30.1,15,31.2,16,32.5,16zM5.5,16C6.8,16,7.9,15,7.9,13.7C7.9,12.4,6.8,11.3,5.5,11.3C4.2,11.3,3.1,12.4,3.1,13.7C3.1,15,4.2,16,5.5,16z" stroke-width="0.333333" id="shape137"/><g transform="translate(606.05,688)" id="shape138"><path fill="none" stroke="#236ea1" stroke-dasharray="11,5" d="M0,0L0,46.9"/><path stroke-linecap="round" fill="#236ea1" stroke="#236ea1" d="M0,51.3L3,46.1C2.1,46.6,1.1,46.9,0,46.9C-1.1,46.9,-2.1,46.6,-3,46.1L0,51.3" stroke-width="1"/></g><g transform="translate(428.05,33.75)"><path fill="#aecaea" stroke="#a3cf62" d="M0,0L46.5,0L46.5,44.5L0,44.5L0,0z" id="shape139"/><path transform="translate(46.5,0)" fill="#aecaea" d="M0,0L18,-13.5L18,31L0,44.5L0,0z" id="shape140"/><path transform="translate(0,-13.52)" fill="#aecaea" d="M18,0L64.5,0L46.5,13.5L0,13.5L18,0z" id="shape141"/><text class="st3"><tspan x="5.3" y="18.3">Block </tspan><tspan x="19.3" y="33.3">X</tspan></text></g><g transform="translate(562.3,33.75)"><path fill="#aecaea" stroke="#a3cf62" d="M0,0L46.5,0L46.5,44.5L0,44.5L0,0z" id="shape142"/><path transform="translate(46.5,0)" fill="#aecaea" d="M0,0L18,-13.5L18,31L0,44.5L0,0z" id="shape143"/><path transform="translate(0,-13.52)" fill="#aecaea" d="M18,0L64.5,0L46.5,13.5L0,13.5L18,0z" id="shape144"/><text class="st4"><tspan x="7.3" y="18.3">Block </tspan><tspan x="11.3" y="33.3">X+1</tspan></text></g><g transform="translate(696.55,33.75)"><path fill="#aecaea" stroke="#a3cf62" d="M0,0L46.5,0L46.5,44.5L0,44.5L0,0z" id="shape145"/><path transform="translate(46.5,0)" fill="#aecaea" d="M0,0L18,-13.5L18,31L0,44.5L0,0z" id="shape146"/><path transform="translate(0,-13.52)" fill="#aecaea" d="M18,0L64.5,0L46.5,13.5L0,13.5L18,0z" id="shape147"/><text class="st4"><tspan x="7.3" y="18.3">Block </tspan><tspan x="11.3" y="33.3">X+2</tspan></text></g><g transform="translate(474.55,56.01)" id="shape148"><path fill="none" stroke="#236ea1" d="M0,0L83.4,0"/><path stroke-linecap="round" fill="#236ea1" stroke="#236ea1" d="M87.8,0L82.6,-3C83.1,-2.1,83.4,-1.1,83.4,0C83.4,1.1,83.1,2.1,82.6,3L87.8,0" stroke-width="1"/></g><g transform="translate(608.8,56.01)" id="shape149"><path fill="none" stroke="#236ea1" d="M0,0L83.4,0"/><path stroke-linecap="round" fill="#236ea1" stroke="#236ea1" d="M87.8,0L82.6,-3C83.1,-2.1,83.4,-1.1,83.4,0C83.4,1.1,83.1,2.1,82.6,3L87.8,0" stroke-width="1"/></g><g transform="translate(364.55,392)" id="shape150"><path fill="none" stroke="#236ea1" d="M0,0L111,-52.9"/><path stroke-linecap="round" fill="#236ea1" stroke="#236ea1" d="M115,-54.8L109,-55.2C109.9,-54.7,110.6,-53.9,111,-52.9C111.5,-51.9,111.7,-50.8,111.6,-49.8L115,-54.8" stroke-width="1"/></g><g transform="translate(606.05,392)" id="shape151"><path fill="none" stroke="#236ea1" d="M0,0L-122.5,-53"/><path stroke-linecap="round" fill="#236ea1" stroke="#236ea1" d="M-126.5,-54.8L-122.9,-50C-123,-51,-122.9,-52,-122.5,-53C-122,-54,-121.4,-54.9,-120.5,-55.5L-126.5,-54.8" stroke-width="1"/></g></g></svg>